<svg xmlns="http://www.w3.org/2000/svg" xmlns:xlink="http://www.w3.org/1999/xlink" viewBox="0 0 470 600">
  <defs>
    <clipPath id="clip-path">
      <path d="M245.72,272.2c0-3.55.34-6.69.33-9.67,0-8.68.14-16.46.46-25.07.12-3.15,1.25-10.78-2-11.16-1.93-.45-3.44.72-3.52,1.4-1,6.5-.62,11.86-.87,18.39-.32,8.47-.63,17.43-.67,25.92-5,3.44-4.55,8.27-2,11.07,1.67,2.87,6.86,2.49,9.3.93C252.69,279.29,246.41,272.31,245.72,272.2Z" fill="none"/>
    </clipPath>
    <clipPath id="clip-path-2">
      <path d="M245.51,271.87c-.17-.09.82-39.2.22-24.13.38-9.57.08-19.09.16-28.53,0-4.93.4-9.46-.13-14.24a3.37,3.37,0,0,0-1.64-.8,5.33,5.33,0,0,0-1.74-.15c-.56.57-1.11,1.14-1.66,1.72-.12,4.79-.26,10.3-.4,14.94-.22,7.22.34,14.58.05,21.79-.22,5.29-.28,10.21-.34,15.35.11-10.59-.23,10-.42,13.48-9.45,10,1.64,14,5.63,12.35C248,282.56,253.68,276.42,245.51,271.87Z" fill="none"/>
    </clipPath>
    <clipPath id="clip-path-3">
      <path d="M247.67,294.14c0-1.11-.11-1.29-.11-2.36,0-.73-.13-1.66-.11-2.36-.36-3.72,0-7.46-.32-11.47-.38-4.58.31-10.18,0-14.68-.56-9.31-.62-18-.64-27.35,0-5.7-.18-12.12-.18-17.92,0-4.9-.67-9.26-.67-14.14,0-2.22.38-4.83.25-7-.29-5-1.07-10.92-.31-15.87a2.15,2.15,0,0,0-1.18-.08c-.23.18-.71.06-.94.24q-.94,18.58-1.64,36.89c-.79,19.85-2.3,40.21-3.13,60-.37,8.93-.38,23-1.15,31.64,1.44-.14,1.55-.13,2.13-.16,3.18-.21,3-.26,5.79-.52,1.12-.28,1.59-.28,2.49-.44C247.87,304.26,247.6,298.46,247.67,294.14Z" fill="none"/>
    </clipPath>
  </defs>
  <g id="bottom">
    <g id="shadow_Image" data-name="shadow Image">
      <image id="shadow_Image-2" data-name="shadow Image" width="230" height="539" transform="translate(120 27)" xlink:href="png/full_photoshop_allNEW1.png"/>
    </g>
  </g>
  <g id="bands">
    <g id="band-leather">
      <g id="band-leather_Image" data-name="band-leather Image">
        <image id="band-leather_Image-2" data-name="band-leather Image" width="159" height="474" transform="translate(174 64)" xlink:href="png/full_photoshop_allNEW2.png"/>
      </g>
      <g id="band-leather-mask" style="isolation: isolate">
        <path d="M301.61,141.06l11.11,1c-.13,12.16-1.44,39.2,1.85,49.67h-1.85c-12.29-17.37-59.76-34.62-90.67-25.83-19.53,5.55-31,14.33-46.26,22.85v-7c5-9,0-31.34,5.55-39.74,2.29-1.5,5.63-.9,7.4-3,7-10.26-1.82-57.25,5.55-68.54,3.39-2.24,9.33-.43,12-1,3.91-.82,12.22-4.8,16.65-6,2.34-.62,9.93,1,13.88,1l33.31-1c10.15,2.57,15.8,5.73,25.9,5v1H297C298.3,91.45,301.25,116.93,301.61,141.06Z" fill="none" fill-rule="evenodd"/>
        <path d="M186.89,423.17l-8.33-1q-1.38-17.39-2.77-34.77c-.48-5.44-1.15-12.32.92-13.9,15,20.82,67.48,31,99,19.86l23.13-10.92c4-2.66,7.17-7.1,12-8.94v1c-2.32,4.17.23,12.2-.93,17.88-1.75,8.55-.39,24.07-4.63,30.79v1a20.56,20.56,0,0,1-7.4-1v7.95c-3.73,6.49.76,20.35-.92,28.81-1.55,7.76.86,19.8-.93,28.81-2.35,11.83-1.87,27.83-1.85,40.72-11.2,3.34-23.22,5.61-37.93,8.94l-9.25-1c-19.46-1.13-33.85-4.8-51.81-5-1.4-2.78-1.89-4.93-1.85-9.93-4.1-7.2,0-20.54-1.85-29.8C187.32,471.79,187.79,445.37,186.89,423.17Z" fill="none" fill-rule="evenodd"/>
      </g>
      <g id="band-leather-shadow_Image" data-name="band-leather-shadow Image">
        <image id="band-leather-shadow_Image-2" data-name="band-leather-shadow Image" width="157" height="474" transform="translate(174 64)" xlink:href="png/full_photoshop_allNEW3.png"/>
      </g>
    </g>
    <g id="band-nylon">
      <g id="band-nylon_Image" data-name="band-nylon Image">
        <image id="band-nylon_Image-2" data-name="band-nylon Image" width="339" height="509" transform="translate(81 29)" xlink:href="png/full_photoshop_allNEW4.png"/>
      </g>
      <g id="band-nylon-mask" style="isolation: isolate">
        <path d="M300,151.21h6c2.43,7.07,1.08,19.65,1,28.47h-2c-15.34-14.73-64.27-22.53-92-13.75-11.8,3.74-23.51,11.86-34,14.73V164c2-3.33.75-9.89,3-12.76,1.42-1,3.27-1,6-1-.21-18-.1-48,2-59.88,1.63-9.25-1.62-19.58,3-25.53v-1c9.23-.85,32.11-1.45,41,0,7.06,1.15,19.79-1.06,26,0,11.57,2,25.75-.95,36,1v2c1.79,2.74,1.39,6.83,2,10.8C300.4,93.15,300.08,130.94,300,151.21Z" fill="none" fill-rule="evenodd"/>
        <path d="M171,368.18h2v1C171.25,368.54,172,369,171,368.18Z" fill="none" fill-rule="evenodd"/>
        <path d="M175,371.12h2v1C175.25,371.49,176,371.92,175,371.12Z" fill="none" fill-rule="evenodd"/>
        <path d="M187,446.72c-.15-15-.65-23.93,1-37.31h-6c-.91-1.06.08-.08-1-1-.23-9.52.45-27.74-3-35.34h2c4.28,5.33,12.07,7,19,9.81,40.8,16.79,73,8.42,107-7.85v34.36h-1v1c-2.53.08-3.72.12-5,1-1.14,1.66-1.07,4.8-1,7.85,2.3,4.67-.86,19-1,26.51a34.25,34.25,0,0,1,11,6.87,78.82,78.82,0,0,1-1,15.71,60.33,60.33,0,0,1-9,4.91c-.6,6.9-1.31,25.74-4,29.45-2.48,1.62-8.9,1.1-13,1-5.65,3.46-24.92,1.12-31,0l-15,1-43-1c-1.83-3.36-2.12-7.88-2-13.74-2.11-3.18-2-11-2-15.71-6.91-1.37-9-4-13-7.85a59.68,59.68,0,0,1,2-16.69C181.15,448.2,182.41,447.11,187,446.72Z" fill="none" fill-rule="evenodd"/>
      </g>
      <g id="band-nylon-shadow_Image" data-name="band-nylon-shadow Image">
        <image id="band-nylon-shadow_Image-2" data-name="band-nylon-shadow Image" width="215" height="444" transform="translate(126 62)" xlink:href="png/full_photoshop_allNEW5.png"/>
      </g>
    </g>
    <g id="band-rubber">
      <g id="band-rubber_Image" data-name="band-rubber Image">
        <image id="band-rubber_Image-2" data-name="band-rubber Image" width="170" height="417" transform="translate(162 106)" xlink:href="png/full_photoshop_allNEW6.png"/>
      </g>
      <g id="band-rubber-mask" style="isolation: isolate">
        <path d="M205.39,106.29c25,5,55-2.79,77.72,2,2.23,8.17,6.84,17.57,9.25,26.82,1.42,5.44.14,12.64,2.78,16.89,0-2.71,0-4.57.92-6,1-.74.88-.59,2.78-1a10.41,10.41,0,0,0,4.62,2,344.86,344.86,0,0,1,15.73,50.66h-.92c-15.36-25.25-69.48-45.07-108.25-29.8-12.08,4.76-23.65,12.14-33.31,19.87-4.81,3.84-7.82,10.21-13,13.9v-3c5.11-7.57,8.81-27.46,12-36.75,2-5.68,1.33-12.63,6.47-14.9,2.53-2.17,4.18-1.66,7.41-1v-6c5-8.87,1.91-24.53,8.32-31.78C199.23,106.87,203.91,107.27,205.39,106.29Z" fill="none" fill-rule="evenodd"/>
        <path d="M295.14,416.22a184.15,184.15,0,0,1-3.7,36.76q-.93,12.4-1.85,24.83c-2.93,13.47-4.66,28.65-7.4,41.72-2.36,1.36-3.25,1.9-7.41,2-2.69,1.18-14.43-1.78-22.2,0-14.22,3.25-36.88-.09-51.81,0v-1h-.93c-.82-7.42-3.05-16.39-4.62-23.84-3.21-15.13-1.73-30.52-4.63-44.7-2.5-12.23.75-25.65-2.78-36.75-2.19.28-3.32-.22-6.47-1-8.19-16-14.17-38.58-18.51-57.61h.93c15.67,25.8,67.9,47.22,109.17,32.78a123.44,123.44,0,0,0,34.24-18.87c5-3.95,8.67-10.16,13.87-13.91v2c-7.21,10.84-9.91,51.5-20.35,55.62C299.13,415.57,297.78,415.86,295.14,416.22Z" fill="none" fill-rule="evenodd"/>
      </g>
      <g id="band-rubber-shadow_Image" data-name="band-rubber-shadow Image">
        <image id="band-rubber-shadow_Image-2" data-name="band-rubber-shadow Image" width="169" height="417" transform="translate(162 106)" xlink:href="png/full_photoshop_allNEW7.png"/>
      </g>
    </g>
    <g id="band-steel">
      <g id="band-steel_Image" data-name="band-steel Image">
        <image id="band-steel_Image-2" data-name="band-steel Image" width="171" height="374" transform="translate(157 94)" xlink:href="png/full_photoshop_allNEW8.png"/>
      </g>
      <g id="band-steel-mask" style="isolation: isolate">
        <path d="M297.91,149c4.32.49,7.3,2,11.11,3q2.31,13.39,4.62,26.82c3.2,10.49,9.29,20.23,11.1,31.78h-.92c-6.2-10.27-15.48-18.18-25-24.83,1.48-4.78.12-11.11,0-17.88h-9.25l-.93,18.87c-11.7,8-16.7,2.62-29.6-1h-13c-1.43-.52-2.74-2.93-6.47-2-6.3,1.59-17.45,5.25-23.13,6-4.37.55-6.62-5.08-13-3s-12.29,9.41-17.58,11.92c-5,2.4-11.08-.8-14.8,0-1,.22-3,1.6-4.62,2-1,3.64-3.72,8.94-7.41,9.93-.84,1.08.08.09-.92,1v-4c6.5-7.88,14.64-40.06,14.8-55.62,3.54-.66,9.53-1.92,11.1-5,2.18-3.8.52-10.07,1.85-14.9,2.73-9.86,6.31-19.53,6.48-33.78,4.51-2.55,13.15-2.11,20.36-2,4.2-2.84,16.12-1,22.2-1,19.05,0,35.88-3.59,52.74,0C289.56,114.06,297.42,128.89,297.91,149Z" fill="none" fill-rule="evenodd"/>
        <path d="M184.11,167.88c-.11,5.86-.45,13.58.93,17.88,7.55-3.36,10.71-4.35,10.18-16.89a13.9,13.9,0,0,0-4.63-1C188.41,169.33,187.1,168.32,184.11,167.88Z" fill="none" fill-rule="evenodd"/>
        <path d="M324.74,210.59c.75,1,.33.28.93,2h-.93Z" fill="none" fill-rule="evenodd"/>
        <path d="M184.11,378.47v17.88c3.34,0,8.51-.49,9.26-1,1.44-2.56.37-9.39,1.85-11.92,6.74,8.28,32.8,11.92,48.11,11.92,10.88,0,22.41-4.47,28.68,1,1-9.33,6.42-5.7,12.95-8.94,2.13-1.06,3.09-4.17,4.63-6v14.9h9.25q.46-7.44.92-14.9c8.78-1.58,11.61-12.18,20.36-14.9v2c-8.24,10.18-7.36,29.82-12,43.71-4.09.55-5.47,1.71-10.18,2-1.26,14-4,26-7.4,38.75-1.24,4.55-1.09,13-4.62,14.9h-91.6c-.94-.8-.25-.36-1.85-1v-6c-2.83-4.88-1.29-12.58-2.77-18.87-2.08-8.79-5.23-16.82-5.56-27.82-4.34-.11-5.89-1.11-9.25-2-1.4-2.79-1.89-4.93-1.85-9.94-2.87-5.11-1.88-12.9-3.7-18.87a264.55,264.55,0,0,0-10.18-27.81h.93v-1H161v1q7.41,8.43,14.81,16.88c3.29,2.62,7.69,3.29,11.1,6Z" fill="none" fill-rule="evenodd"/>
        <path d="M184.11,397.35c.07,2.51.12,3.69.93,5C185,399.8,184.93,398.62,184.11,397.35Z" fill="none" fill-rule="evenodd"/>
      </g>
      <g id="band-steel-shadow_Image" data-name="band-steel-shadow Image">
        <image id="band-steel-shadow_Image-2" data-name="band-steel-shadow Image" width="171" height="374" transform="translate(157 94)" xlink:href="png/full_photoshop_allNEW9.png"/>
      </g>
    </g>
  </g>
  <g id="basic">
    <g id="basic_dial_Image" data-name="basic_dial Image">
      <image id="basic_dial_Image-2" data-name="basic_dial Image" width="240" height="397" transform="translate(122 81)" xlink:href="png/full_photoshop_allNEW10.png"/>
    </g>
    <g id="basic_ur_skrive" opacity="0.6" style="isolation: isolate">
      <path d="M238,166c27-.58,53.4,7.59,74.74,24.08A108.83,108.83,0,0,1,324.87,353.2C307,371.89,281.79,386.71,253,389c-17,1.35-35.48-1.6-54-10-25.19-11.43-50.38-33.87-61.53-66.53A111.78,111.78,0,0,1,133,259l3-15a110.12,110.12,0,0,1,25-43c9.13-9.69,21.87-19.33,40-27a97.76,97.76,0,0,1,24-7A91.33,91.33,0,0,1,238,166Z" fill="none" fill-rule="evenodd"/>
    </g>
  </g>
  <g id="indeks">
    <g id="number">
      <g id="Minutes" style="isolation: isolate">
        <path d="M231.3,169.33c0,.49,0,.73,0,1.18,0,1.26,0,1.59,0,2.08,0,.87,0,.82,0,1.48h-1.48v-.89c0-1.28,0-2.22,0-3.85C230.58,169.35,230.74,169.33,231.3,169.33Z" fill="none" fill-rule="evenodd"/>
        <path d="M251.19,173.78a43.84,43.84,0,0,1,.59-4.75s1,0,1.19,0c-.09.84-.6,4.74-.6,4.75h-1.18Z" fill="none" fill-rule="evenodd"/>
        <path d="M264,170.51c-.3,1.39-.59,3.07-.89,4.45h-1.19c.1-1,.67-3.48.89-4.45C263.42,170.52,263.54,170.51,264,170.51Z" fill="none" fill-rule="evenodd"/>
        <path d="M218.54,172c.41-.15,1-.45,1.48-.6a41.75,41.75,0,0,1,.89,4.16c-.3.24-.08.1-.59.29a6.43,6.43,0,0,1-.59.3,21.68,21.68,0,0,1-.9-3C218.83,173,218.55,172.15,218.54,172Z" fill="none" fill-rule="evenodd"/>
        <path d="M273.45,173.18c.29.1.89.2,1.19.3-.22.74-.56,1.92-1.23,4.17-.36-.21-.57-.33-1.15-.61h0c0-.19,0,0,0,0C272.64,176,273.11,174.32,273.45,173.18Z" fill="none" fill-rule="evenodd"/>
        <path d="M209,174.37c.59,1.55.64,1.61,1.48,3.86a3.22,3.22,0,0,0-.59.29s-.59.2-.59.3h0c0-.1-1.41-3.77-1.49-3.86Z" fill="none" fill-rule="evenodd"/>
        <path d="M283.54,181.49a8.18,8.18,0,0,1-1.19-.89c.62-1.23,1.1-2.3,1.78-3.56,0,.2.89.69.89.89C284.47,179.36,284.12,180.16,283.54,181.49Z" fill="none" fill-rule="evenodd"/>
        <path d="M199,178.52c.38.8,1.39,3.11,1.78,4.16-.4,0-.79.29-1.19.29-.47-.8-1.1-2.9-1.78-3.56A9,9,0,0,1,199,178.52Z" fill="none" fill-rule="evenodd"/>
        <path d="M303.43,188a12.43,12.43,0,0,1,.89.89c-.67,1-1.4,2-2.38,3.26,0-.1-.89-.79-.89-.89s-.07.69,0,0A18.55,18.55,0,0,1,303.43,188Z" fill="none" fill-rule="evenodd"/>
        <path d="M179.06,190.69a4.89,4.89,0,0,1,.89-.89c1,1.23,1.86,2.4,2.67,3.56-.19,0-.69.89-.89.89A34.83,34.83,0,0,1,179.06,190.69Z" fill="none" fill-rule="evenodd"/>
        <path d="M312,195.14c.52.25.68.31,1.19.59-1,1.25-1.93,2.38-3,3.56a11.32,11.32,0,0,1-.89-1.19C310.35,197.13,311.2,196.12,312,195.14Z" fill="none" fill-rule="evenodd"/>
        <path d="M171.64,196.62c.75.89,2.09,2.36,2.67,3.26a4.41,4.41,0,0,1-.29.6c-.07.16-.22.41-.3.59a4.2,4.2,0,0,1-.3-.3h0a24.43,24.43,0,0,1-3-3A13.25,13.25,0,0,1,171.64,196.62Z" fill="none" fill-rule="evenodd"/>
        <path d="M320.05,203.15l.89.89h0c-1.22,1.13-2.09,1.74-3.27,2.67h0c-.17-.21-.59-.6-.59-.89A26,26,0,0,0,320.05,203.15Z" fill="none" fill-rule="evenodd"/>
        <path d="M163.63,204.63c1.65,1.07,2,2,3.26,3.26l-.29.6c-.1,0-.2.29-.3.29s-3.56-3.16-3.56-3.26C163.14,205.08,163.25,205,163.63,204.63Z" fill="none" fill-rule="evenodd"/>
        <path d="M323.9,214.4s0,0,0,0c.52-.44,2.19-1.93,3.26-2.67a10.82,10.82,0,0,1,.89.89h0c-.69.62-2.42,2.12-3.26,3C324.56,215.31,324.19,214.79,323.9,214.4Z" fill="none" fill-rule="evenodd"/>
        <path d="M155.91,213.83c1-1.21,3.07.94,4.45,2.37-.29,0-.59.89-.89.89C158.19,215.88,156.93,215.77,155.91,213.83Z" fill="none" fill-rule="evenodd"/>
        <path d="M338.75,231.63c.22.25.59.59.59.89-1.25.62-2.16,1-3.86,1.78a4.29,4.29,0,0,1-.59-.89C336.27,232.73,337.14,232.3,338.75,231.63Z" fill="none" fill-rule="evenodd"/>
        <path d="M149.38,235.78a13.8,13.8,0,0,1-4.15-2.37c.22-.33.65-.87.89-1.19.38.26,3.19,2,3.85,2.37A5.23,5.23,0,0,1,149.38,235.78Z" fill="none" fill-rule="evenodd"/>
        <path d="M339.34,243.49a19.06,19.06,0,0,1,3.56-1.18c.18.2.6.69.6.89-1.15.46-3.87,1.48-3.86,1.48h0A7.93,7.93,0,0,1,339.34,243.49Z" fill="none" fill-rule="evenodd"/>
        <path d="M141.66,244.38a4,4,0,0,1,.6-.89c0,.1,3.86,1.09,3.86,1.19s-.2.36-.3.59a6.56,6.56,0,0,0-.3.6C144.18,245.39,143,244.92,141.66,244.38Z" fill="none" fill-rule="evenodd"/>
        <path d="M342.31,255.36c-.07-.3-.2-.79-.3-1.19a36,36,0,0,0,4.16-.89c0,.2.29,1,.29,1.19h0A40.66,40.66,0,0,1,342.31,255.36Z" fill="none" fill-rule="evenodd"/>
        <path d="M143.15,256c-1.78-.35-2.52-.54-4.16-.89a9.94,9.94,0,0,1,.6-1.18,28.15,28.15,0,0,1,3.85,1.18A5.42,5.42,0,0,0,143.15,256Z" fill="none" fill-rule="evenodd"/>
        <path d="M142,265.45c-.11.41-.2.84-.3,1.18-.66-.13-3.63-.43-4.15-.59a15.21,15.21,0,0,1,.59-1.48C139.36,264.85,140.9,265.22,142,265.45Z" fill="none" fill-rule="evenodd"/>
        <path d="M348.24,265.74c-1.46.19-3.09.42-4.15.6v-1.19h0c.92-.2,3.19-.49,3.86-.59h0C348,264.89,348.09,265.15,348.24,265.74Z" fill="none" fill-rule="evenodd"/>
        <path d="M139.29,286.81c1.13,0,1.45,0,2.08,0a1.77,1.77,0,0,1,.89,0c0,.51,0,.74,0,1.18-1.87,0-2.32,0-4.16,0-.1-.19.1-1,0-1.18C138.71,286.82,138.92,286.79,139.29,286.81Z" fill="none" fill-rule="evenodd"/>
        <path d="M344.09,287.4h3.56a1.49,1.49,0,0,0,.3,0,2.91,2.91,0,0,0,0,.3v.89h-3.86Z" fill="none" fill-rule="evenodd"/>
        <path d="M143.74,297.49c0,.51,0,.64,0,1.18-1.29.19-2.83.48-3.86.6,0-.47,0-.87,0-1.19A34.85,34.85,0,0,1,143.74,297.49Z" fill="none" fill-rule="evenodd"/>
        <path d="M343.2,298.08a27.22,27.22,0,0,0,3.56.89,13.19,13.19,0,0,1-.59,1.19,26.66,26.66,0,0,0-3.86-.89A9.34,9.34,0,0,1,343.2,298.08Z" fill="none" fill-rule="evenodd"/>
        <path d="M146.12,307.57a5.88,5.88,0,0,0,.59.89h0c-1.24.68-2.31,1.19-3.56,1.78,0-.19-.6-1-.6-1.18h0A18.31,18.31,0,0,1,146.12,307.57Z" fill="none" fill-rule="evenodd"/>
        <path d="M340.23,308.76l3.56,1.48c0,.2-.08-.28,0,0a4.87,4.87,0,0,1-.59.89c-1-.29-2.57-.89-3.56-1.18C339.87,309.46,340,309.12,340.23,308.76Z" fill="none" fill-rule="evenodd"/>
        <path d="M149.68,317.66a9.08,9.08,0,0,0,.89.89c-.83.48-2.53,1.53-3.27,2.08h0c-.78-.45-.74-.62-1.18-1.19.61-.38.77-.49,1.48-.89A17.11,17.11,0,0,1,149.68,317.66Z" fill="none" fill-rule="evenodd"/>
        <path d="M339.64,320.92c-.49.5-.68.65-.89.89a12.67,12.67,0,0,1-2.67-1.78c.13-.24.43-.65.59-.89C338,319.86,338.34,320.1,339.64,320.92Z" fill="none" fill-rule="evenodd"/>
        <path d="M160.07,336.35c.23.35.82.5.89,1.19-.67.51-3,2.15-3.27,2.37a4.11,4.11,0,0,1-.59-1.19c.72-.7,1.37-1.2,2.08-1.78C159.58,336.61,159.75,336.59,160.07,336.35Z" fill="none" fill-rule="evenodd"/>
        <path d="M325.69,338.13a18.93,18.93,0,0,0,3,2.37h0c-.16.19-.68.69-.9.89h0c-1.09-.32-2.36-1.65-3.26-2.37A2.83,2.83,0,0,1,325.69,338.13Z" fill="none" fill-rule="evenodd"/>
        <path d="M166.6,345a4.36,4.36,0,0,0,.89.89c-1,.84-1.92,1.84-3,2.67-.21-.27-.6-.59-.6-.89C165.11,346.53,165.42,346.16,166.6,345Z" fill="none" fill-rule="evenodd"/>
        <path d="M318,347.33c.2-.17.59-.6.89-.6,1.16,1.26,1.35,1.37,2.67,2.67h0c0,.1-.89.5-.89.6A31.94,31.94,0,0,1,318,347.33Z" fill="none" fill-rule="evenodd"/>
        <path d="M172.53,356.52c-.21-.3-.71-.95-.89-1.18.74-.68,1.69-1.62,2.38-2.38h0c.41.27.44.31.89.6C174.16,354.61,173.24,355.71,172.53,356.52Z" fill="none" fill-rule="evenodd"/>
        <path d="M313.81,358h-1.18a12.71,12.71,0,0,1-2.38-3.56h1.19C312.34,355.71,313,356.7,313.81,358Z" fill="none" fill-rule="evenodd"/>
        <path d="M182.33,359.79h0a7.45,7.45,0,0,1,.89.89c-.72,1.05-1.31,2-2.08,3a7.09,7.09,0,0,1-1.19-.89C180.68,362.15,181.69,360.48,182.33,359.79Z" fill="none" fill-rule="evenodd"/>
        <path d="M301.65,361.57h1.18c.76,1.18,1.4,2.12,2.38,3.56H304A12.65,12.65,0,0,1,301.65,361.57Z" fill="none" fill-rule="evenodd"/>
        <path d="M201.32,371.36c-.29,1.08-.89,2.47-1.18,3.56A6.88,6.88,0,0,1,199,374c0-.2,1.19-3.07,1.19-3.27C200.48,371,201,371.12,201.32,371.36Z" fill="none" fill-rule="evenodd"/>
        <path d="M283,372c.64,0,.84,0,1.18,0a29.41,29.41,0,0,1,1.49,4.15h-1.19A36.7,36.7,0,0,1,283,372Z" fill="none" fill-rule="evenodd"/>
        <path d="M210.23,374.92h1.18c-.28.89-1,3.4-1.18,4.15a5.32,5.32,0,0,0-1.19-.3h0A35.3,35.3,0,0,1,210.23,374.92Z" fill="none" fill-rule="evenodd"/>
        <path d="M273.15,375.81c.59,0,.85,0,1.19,0a37.09,37.09,0,0,1,.89,4.15h-.3c-.27,0-.23,0-.59,0C273.51,379.05,273.36,377.33,273.15,375.81Z" fill="none" fill-rule="evenodd"/>
        <path d="M220.32,377.88h1.19c-.23,1.32-.37,2.06-.6,3.86h-1.18C219.92,380.09,220,379.38,220.32,377.88Z" fill="none" fill-rule="evenodd"/>
        <path d="M262.76,378.48H264c.17,1,.61,3.64.59,4.15-.57,0-.7,0-1.18,0A21.43,21.43,0,0,1,262.76,378.48Z" fill="none" fill-rule="evenodd"/>
        <path d="M230.71,379.66c.29.1.89-.1,1.18,0,0,1,0,3.22,0,4.16h-1.18C230.71,382.64,230.68,380.32,230.71,379.66Z" fill="none" fill-rule="evenodd"/>
        <path d="M252.08,380h1.18a39.66,39.66,0,0,1,.3,4.45c-.32.27.27-.32,0,0h-.89a25.92,25.92,0,0,1-.59-4.45C252.06,379.62,252.13,380.15,252.08,380Z" fill="none" fill-rule="evenodd"/>
      </g>
      <g id="Numbers" style="isolation: isolate">
        <path d="M243.47,173.67v5H239c0-1.59,0-3.35,0-5,.42,0,1.78,0,2.37,0C242.24,173.68,242.31,173.67,243.47,173.67Z" fill="none" fill-rule="evenodd"/>
        <path d="M243.47,207.25c4,.1,9.55-.39,13.06.29,0,.92,0,1.81,0,2.92-4.16,0-12.87,0-18.4,0,0-.53,0-.2,0-.88,1.12-4.91,4.23-6.55,7.42-9.34,1.54-1.35,2.69-2.65,4.15-4.09,1.26-1.24,4.34-4.46,3.27-7.88-.73-1.44-1.65-1.79-3-2.63-1.27,0-3.38-.22-4.16.29-5.11,1.45-.71,6.68-7.12,5,0-4.45,3.58-7.67,7.12-8.47,5.21-1.17,10.64,2,11,5.55.95,1.48-.25,4.91-.89,6.13a14.25,14.25,0,0,1-2.08,2.63c-.89.88-1.48,1.75-2.38,2.62C249.35,201.47,243.77,205.34,243.47,207.25Z" fill="none" fill-rule="evenodd"/>
        <path d="M234.86,182.72v28c-1.09,0-2.42,0-3.86,0V190c-2.88.31-3.56,2.75-6.82,2.92,0-1,0-1.86,0-2.92,1.49-1.09,7.26-4.78,8.31-7.3Z" fill="none" fill-rule="evenodd"/>
        <path d="M293,185.93c1.63.84,1.88,1,3.56,2l-2.37,4.08a41.14,41.14,0,0,1-3.86-2C291.13,188.93,292.42,187,293,185.93Z" fill="none" fill-rule="evenodd"/>
        <path d="M189.45,188.56a8.36,8.36,0,0,0,1.19-.88c.64,1,1.63,2.8,2.37,4.09a2.87,2.87,0,0,1-.89.59,31.69,31.69,0,0,0-3,1.75c-.75-1.22-1.19-2-2.37-4.09C187.41,189.66,188.61,189,189.45,188.56Z" fill="none" fill-rule="evenodd"/>
        <path d="M287.1,193.23c0,4.19,0,15.76,0,19.86H285c0-1.52,0-11.51,0-14.6-2.43,0-2.65,1.37-5,2,0-.42,0-.38,0-.87v-1.17c3.1-1.11,4.17-3.33,5.93-5.26Z" fill="none" fill-rule="evenodd"/>
        <path d="M191.23,215.42v-14c-1.73-.81-2.63,1.19-4.75,1.46v-2.05c2.54-1.54,3.94-3,7.13-5.23v19.54A7.49,7.49,0,0,1,191.23,215.42Z" fill="none" fill-rule="evenodd"/>
        <path d="M203.7,215.42h-2.38c0-4.49,0-9.9,0-14-.21-.46-.41-.53-1.18-.59a5.9,5.9,0,0,1-3.86,1.76c0-.6,0-1.16,0-1.76,2.23-1.34,5.28-4.64,7.42-5.25Z" fill="none" fill-rule="evenodd"/>
        <path d="M315.89,242.29h8.61a11,11,0,0,0,0,1.17v.87H311.44c0-1,0-.32,0-1.46a52.08,52.08,0,0,1,3.56-4.09c2-2,6.81-5.39,6.83-8.17a5.62,5.62,0,0,0,0-1.17,2.37,2.37,0,0,0-2.38-2.34h-2.07c-1.32,0-3.06,2-3,3.51-1.46,0-1.9,0-2.67,0,.09-1.89.53-6.22,6.82-6.13,3.23,0,5.89,1.83,5.94,5.25a7.66,7.66,0,0,1-.59,3.8c-1,1.89-6.18,5.91-8,7.59Z" fill="none" fill-rule="evenodd"/>
        <path d="M332.81,224.48c.41.56.64,1.06.89,1.46.75,1.25.37.63,1.49,2.33-.81.48-3.15,1.66-3.86,2-.66-1-1.6-2.47-2.38-3.8C330,225.92,331.86,225.06,332.81,224.48Z" fill="none" fill-rule="evenodd"/>
        <path d="M151.16,226.23c1.86.73,2.68,1.13,4.16,1.75-.7,1.63-1.15,2.66-1.78,4.09-1.26-.59-2.65-1.21-4.16-2C149.89,229,150.69,227.36,151.16,226.23Z" fill="none" fill-rule="evenodd"/>
        <path d="M171.64,227.69c2.42-.12,4.53,1.15,5.64,4.09,1.69,2.28,1.26,11,0,12.84a8.7,8.7,0,0,1-3.26,2.92c-1.27.05-3.38.22-4.16-.29-5.87-1.83-4.76-13.75-3-16.64a7.94,7.94,0,0,1,1.49-1.75A5,5,0,0,1,171.64,227.69Z" fill="none" fill-rule="evenodd"/>
        <path d="M162.74,228.27v19.27h-2.08c-.06-4.3-.29-9.29-.3-14h-.89a26,26,0,0,1-3.26,1.75,6.76,6.76,0,0,1-1.19-2,17.36,17.36,0,0,0,5-3.51,13.41,13.41,0,0,1,1.18-1.46Z" fill="none" fill-rule="evenodd"/>
        <path d="M171.64,230.32c-4.14,1.31-3.31,10.59-2.67,12.55a4.12,4.12,0,0,0,3,2.34,3,3,0,0,1,.3,0c4.49-1.13,4.14-13.68.29-14.89Z" fill="none" fill-rule="evenodd"/>
        <path d="M334.29,270.9c.62.11,5,1.08,5,5,.17,3-1.78,2.49-1.78,4.09,0,1.26,2.66.76,2.67,5s-3.36,6.17-6.53,6.13c-4.9-.08-6.25-2.63-6.53-5.25.54,0,1.53,0,2.38,0a3.85,3.85,0,0,0,4.15,3.5,4.22,4.22,0,0,0,4.16-4.09c0-4.61-4.84-3.79-5.64-3.79,0-.62,0-1.25,0-2.05,1.64,0,4.43-.62,4.45-2.63,0-.36,0,.55,0-.58a2.92,2.92,0,0,0-3.27-2.92c-3.17,0-3.92,2.31-4.74,3.5a2.13,2.13,0,0,0-.3.3c0-.1-.6-.49-.6-.59-.51-.5-.23-.24-.59-.58s-.29-.35-.3-.59c2.15-2.94,3.9-4.4,6.24-4.38A9.29,9.29,0,0,0,334.29,270.9Z" fill="none" fill-rule="evenodd"/>
        <path d="M146.71,286.09c.57,1.13,1.4,2.9,3.56,2.92,2.31,0,4.1-2.68,4.16-6.13-1.45-.05-.83,1-4.46.87-4.85,0-5.39-3.71-5.64-5.84.06-3.86,3.19-6.66,4.75-6.71h1.49a6.5,6.5,0,0,1,6.23,6.71c.1,1.66-.1,1,0,2.63,0,7.31-2.5,10.22-7.12,10.22-3,0-4.93-2.08-4.75-4.67C145.64,286.06,145.92,286.13,146.71,286.09Z" fill="none" fill-rule="evenodd"/>
        <path d="M150.57,273.24a4.38,4.38,0,0,0-4.16,4.38c.05,1.84.09,1.75.3,2,.66,1.51,1.66,1.72,3,2.34h1.78a4.3,4.3,0,0,0,3-4.09C154.41,275.14,153,273.26,150.57,273.24Z" fill="none" fill-rule="evenodd"/>
        <path d="M141.66,277.62V282h-4.75v-4.38c1.07,0,2.5,0,3.86,0Z" fill="none" fill-rule="evenodd"/>
        <path d="M349.14,277.91v4.67h-5.05c0-1.11,0-3.17,0-4.67C345.42,277.91,347.46,277.89,349.14,277.91Z" fill="none" fill-rule="evenodd"/>
        <path d="M167.78,323.46c0,.84,2.61,2,2.67,5-.07,5.82-6.88,6.1-6.53,6.13h-.59c-3,.14-5.85-2.78-5.94-6.42-.15-3.13,2.06-3.57,2.08-4.68s-1.2-1.17-1.19-3.5a5.36,5.36,0,0,1,5.64-5.26,5.55,5.55,0,0,1,5.35,5.26C169.26,322.85,167.81,322.61,167.78,323.46Z" fill="none" fill-rule="evenodd"/>
        <path d="M324.8,330.47v2.34h-3c0,1.27,0,4.29,0,4.67-.49,0-1.45,0-2.38,0,0-1.49,0-3.51,0-4.67h-8.6c0-.41,0-1.9,0-2.63,1.47-1.89,4.74-6.56,6.82-9.34,1-1.38,1.67-2.3,2.08-2.92.41,0,1.78,0,2.08,0,0,1.92,0,10.21,0,12.55Z" fill="none" fill-rule="evenodd"/>
        <path d="M314.11,330.18c1.68,0,3.82,0,5.05,0,0-.32,0-.51,0-.88,0-1.26,0-4.16,0-5.84h-.3a2.85,2.85,0,0,1-.3,0c-1.61,2.1-3.12,4.05-4.45,5.84Z" fill="none" fill-rule="evenodd"/>
        <path d="M153.24,329.3l1.19-.58c.91,1.63,1.12,1.95,2.07,3.5-1.37.75-2.33,1.29-4.15,2.34a21,21,0,0,1-2.08-3.8C151.36,330.29,152.24,329.76,153.24,329.3Z" fill="none" fill-rule="evenodd"/>
        <path d="M335.78,332.52c-.84,1.24-1.48,2.22-2.38,3.5-1.3-.81-2.45-1.47-3.85-2.34.61-1,1.53-2.52,2.07-3.5C333.34,331.1,334.37,331.68,335.78,332.52Z" fill="none" fill-rule="evenodd"/>
        <path d="M197.76,366.68h-2.08c0-.84,0-1.59,0-2.63a32,32,0,0,1,1.78-6.71c1-2.57,3.69-4.23,3.86-7.6-2.06,0-6.11,0-8.6,0,0-.54,0-.47,0-1.16a7.4,7.4,0,0,1,0-.88c2.22,0,8.89,0,11.27,0a11.44,11.44,0,0,1,1.19,0c0,.44,0,.47,0,.88a3.65,3.65,0,0,0,0,.58c-.54,1.64-2.06,2.77-3,4.09A26.24,26.24,0,0,0,197.76,366.68Z" fill="none" fill-rule="evenodd"/>
        <path d="M281.46,356.17h.3c.29,0,.11,0,.59,0a20.78,20.78,0,0,1,2.67-.29,6,6,0,0,1,6.24,6.13c0,.33,0,.21,0,.58,0,2.46-2.23,6.75-6.53,6.72a6.27,6.27,0,0,1-6.53-5.84h.29c.6,0,1.22,0,2.08,0v.29c.05,1.54,1.82,3.49,4.45,3.5,1.76,0,3.63-2.37,3.57-4.38.12-2.58-1.79-5-4.16-5a3.94,3.94,0,0,0-3.56,1.75c-.87,0-1.33,0-2.08,0,0-3.94,1.31-10,1.78-10.51.43,0,8.69.1,9.2.29a3.33,3.33,0,0,0,.6.88c-.19.51-.06.28-.3.58-1,1.06-4.84.64-6.83.59-.3.23-.08.1-.59.29l-.3.87A6.62,6.62,0,0,0,281.46,356.17Z" fill="none" fill-rule="evenodd"/>
        <path d="M249.7,357.92h-3c0-1.56-1.29-3.76-5.05-3.8-3.34,0-6.29,3.44-6.23,9.35h.89c1.54-2.18,4.18-2.63,5.93-2.63,3.8,0,8.27,3.51,8.31,8.18.1,1.26-.1-.39,0,.87,0,5.92-3.67,9.62-8.31,9.64-3.85.05-10.25-2.72-10.09-11.1.18-9,.77-17.49,9.8-17.52,4.25,0,7.65,3.32,7.71,5.26C249.72,356.82,249.7,357.12,249.7,357.92Z" fill="none" fill-rule="evenodd"/>
        <path d="M242,364.34c-.39,0-.57,0-1.19,0-2,.33-4.64,1.63-4.45,5.26.05,4.1,1.86,6.69,4.75,6.72a14.18,14.18,0,0,0,1.48,0c3.83,0,4.5-4.27,4.45-6.14.16-4.42-3.22-5.85-4.45-5.84Z" fill="none" fill-rule="evenodd"/>
        <path d="M189.75,366.68a11.78,11.78,0,0,1,3.86,2.34c-.68,1-1.8,2.81-2.38,3.79l-.3-.29-.29-.29c-1.23-.71-1.43-.81-3-1.75C188.26,369.44,189.24,367.58,189.75,366.68Z" fill="none" fill-rule="evenodd"/>
        <path d="M294.52,368.14c.82,1.11,1.71,2.39,2.67,3.8-1.26.73-2.2,1.29-3.56,2-1-1.46-1.49-2.15-2.67-3.8C291.87,369.64,293.65,368.69,294.52,368.14Z" fill="none" fill-rule="evenodd"/>
        <path d="M239.91,382.16h4.15v4.38h-4.15Z" fill="none" fill-rule="evenodd"/>
      </g>
    </g>
    <g id="romen">
      <g id="Layer_1" data-name="Layer 1" style="isolation: isolate">
        <path d="M239.4,175c0,.45,0,1.06,0,1.32-.68,0-.71,0-1.32,0,.59,1.22,2.48,5,3.29,6.57.78-1.5,3-5.44,3.61-6.57a11.14,11.14,0,0,0-1.31,0c0-.38,0-.64,0-1.32,3.24,0,10.21,0,13.47,0v1.32c-.44,0-.95,0-1.64,0,.08,3.36,0,12.76,0,17.09h1.31c0,.63,0,1,0,1.31H242.68v-1.31H244c-1-2.1-2.29-4.65-3.29-6.57-.66,1.18-3,5.42-3.62,6.57.43,0,.86,0,1.32,0,0,.76,0,.48,0,1.31-1.07,0-2.08,0-3.94,0v-1.31h1.31c1.49-2.72,2.64-4.89,4.27-7.89-1.31-2.58-3.67-6.81-4.93-9.2h-1.31c0-.5,0-.92,0-1.32C234.91,175,237.83,175,239.4,175Z" fill="none" fill-rule="evenodd"/>
        <path d="M248.27,176.3H246c-1.31,2.68-2.31,4.71-3.95,7.89,1.42,2.48,3.54,6.51,4.93,9.2.41,0,.88,0,1.32,0C248.29,188.84,248.3,181.29,248.27,176.3Z" fill="none" fill-rule="evenodd"/>
        <path d="M250.9,176.3c0,11.4,0,16.31,0,17.09h2.3V176.3Z" fill="none" fill-rule="evenodd"/>
        <path d="M211.46,201c-2.55,1.55-5,3-7.56,4.6a6.59,6.59,0,0,1-1-1c.35-.35.22-.19.66-.65-1.37-1-4.93-3.58-5.92-4.28v7.89a9.39,9.39,0,0,1,1-.66,2.92,2.92,0,0,1,.66.66,14,14,0,0,1-3,2,6.78,6.78,0,0,0-.66-1c.57-.38.54-.35,1-.66,0-2.48,0-6.94,0-8.87-3.36-2-6-3.93-8.88-5.92,0-.11-1,.77-1,.66a8.39,8.39,0,0,1-1-1,43.77,43.77,0,0,1,4.6-2.63,4.48,4.48,0,0,1,.66,1,4.35,4.35,0,0,0-.66.66c1.36,1,4.18,3,5.92,4.27v-7.23c-.41,0-1,0-1.31,0,0-.31,0-.77,0-1.32,2.3-1.27,4.19-2.29,6.9-3.61v1.64a3.37,3.37,0,0,0-.66.33c.9,1.52,5.23,8.92,8.55,14.79.42-.27.69-.45,1-.66A4.6,4.6,0,0,1,211.46,201Z" fill="none" fill-rule="evenodd"/>
        <path d="M199.3,186.49c-.51.31-1.34.89-2,1.31,0,2.52,0,7,0,8.55,1.65,1.32,8.42,5.71,9.2,6.24l1.31-1C206,198.43,201.18,190,199.3,186.49Z" fill="none" fill-rule="evenodd"/>
        <path d="M294.94,188.13c1.47.85,2.87,1.59,3.94,2.3a6,6,0,0,1-.65,1l-1-.66c-3.14,5.53-8,14.24-8.54,15.12a8.88,8.88,0,0,0,1,.66c-.27.43-.32.46-.66,1-1.06-.69-2.89-1.7-3.94-2.3a13.29,13.29,0,0,1,.66-1.31c.42.28.66.6,1,.65,1-1.57,1.32-2.88,2.3-4.6,1.49-2.59,4.85-8.09,6.25-10.19-.34-.23-.74-.5-1-.65C294.42,188.89,294.68,188.56,294.94,188.13Z" fill="none" fill-rule="evenodd"/>
        <path d="M176.29,229.21c-.84,1.62-1.89,3.64-2.63,4.93a2.91,2.91,0,0,0-.66,0c0-1,0-1.26,0-2-1.53,0-5,0-7.23,0,1,1.59,2.71,4.25,3.95,6.25a11.89,11.89,0,0,1,.66-1,9.76,9.76,0,0,0,1,.66,34.88,34.88,0,0,1-2,3.26c-.29-.22-.45-.29-1-.63.2-.42.35-.72.66-1.32-1.62-2.4-4.21-6.38-4.93-7.23-3.91-.23-8.92-.55-10.52-.66,0,.3,0,.25,0,.66-.55,0-1.17,0-1.31,0,0-.58,0-.38,0-1a46.68,46.68,0,0,0,2.63-3.95s.36,0,.66,0c0,.57-.06,2,0,2,2.47.14,5.48.25,7.23.33-1.14-1.82-3.32-5.24-3.95-6.57a6.31,6.31,0,0,1-.66,1,3.84,3.84,0,0,1-1-1,13.16,13.16,0,0,1,2-2.63,5.8,5.8,0,0,0,1,.66c.11,0-.77,1-.66,1,2.06,3.51,2.93,4.91,4.6,7.56,2.15,0,7.9.24,10.52.33a2.15,2.15,0,0,0,.33-.66C176.35,229.16,175.11,229.29,176.29,229.21Z" fill="none" fill-rule="evenodd"/>
        <path d="M330.76,223.63a4.3,4.3,0,0,1,1.32-.66c1.73,2.69,2.75,4.88,4.6,8.22-.43.19-.7.38-1.31.65a7.66,7.66,0,0,0-.66-1c-3.76,2.36-11.17,6.66-14.46,8.54.32.54.38.58.65,1,0-.11-1.31.77-1.31.66-1.23-2.24-3.45-6.08-4.6-8.55.57-.36.4-.29,1-.66a7.37,7.37,0,0,0,.66,1c3.12-1.7,12.32-6.67,14.79-8.22C331.13,224.13,331.16,224.23,330.76,223.63Z" fill="none" fill-rule="evenodd"/>
        <path d="M317.62,235.13c.29.54.88,1.6,1.31,2.3,1.81-1,10.29-5.88,15.12-8.87-.35-.6-1-1.62-1.31-2.3C329.81,227.93,321.3,233.06,317.62,235.13Z" fill="none" fill-rule="evenodd"/>
        <path d="M149.34,274.57a70.47,70.47,0,0,1-6.57-3.62,8.07,8.07,0,0,0,0,1.32c-.57,0-.5,0-1.32,0,.11-1.1-.11-2.52,0-3.62h1.32c0,.89,0,.64,0,1.32,1.87,1.14,5.76,3.28,7.56,4.27,2.81-1.35,7.39-3.64,9.53-4.6,0-.7,0-.81,0-1.64,0,.11,1.31-.11,1.31,0,0,1.29,0,3.87,0,5.58h-1.31a11.42,11.42,0,0,0,0-1.31c-1.41.76-5,2.63-6.58,3.61,1.59.92,5.16,2.75,6.58,3.62,0-.6,0-.68,0-1.31a8.13,8.13,0,0,0,1.31,0c0,1.79-.08,5.7,0,8.21-.93.05-.58,0-1.64,0a5.35,5.35,0,0,0,0-1c-4.24-1.21-13.11-.36-16.76-.33a8,8,0,0,1,0,1,12.17,12.17,0,0,0-1.65,0c0-2.85-.07-7,0-9.53h1.32c0,.71,0,.77,0,1.65C144.46,277.19,147.88,275.37,149.34,274.57Z" fill="none" fill-rule="evenodd"/>
        <path d="M329.12,271.28c0,.73,0,1.16,0,1.65h17.42c0-.83,0-.76,0-1.65.36,0,.65,0,1,0,0,3.09,0,10.45,0,14.79h-1c0-.31,0-.3,0-1-2.77,0-11,0-17.42,0,0,.67,0,.67,0,1h-1.31c0-1-.12-7.53,0-14.79C328.44,271.3,328.65,271.3,329.12,271.28Z" fill="none" fill-rule="evenodd"/>
        <path d="M329.12,274.9c0,.69,0,1.74,0,2.63h17.42V274.9C345.1,274.93,332.54,274.84,329.12,274.9Z" fill="none" fill-rule="evenodd"/>
        <path d="M142.77,282.46c4.75,0,11.21,0,16.76,0v-1.65c-2.33-1.49-4.76-2.95-7.56-4.6-2,1.1-6.87,3.72-9.2,4.93C142.76,281.71,142.82,282,142.77,282.46Z" fill="none" fill-rule="evenodd"/>
        <path d="M329.12,279.83v2.63c4.68,0,15.66,0,17.42,0,0-.56,0-1.94,0-2.63Z" fill="none" fill-rule="evenodd"/>
        <path d="M157.23,330.44c.25.53.37.79.66,1.32-.22,0-.77.66-1,.66-3.09-5.07-6.43-10.07-8.87-15.78a6.24,6.24,0,0,1,1-.66c.36.59.33.51.66,1l15.12-7.89a7.1,7.1,0,0,1-.66-1,6.22,6.22,0,0,1,1.32-.65c1,1.84,4.78,8.9,6.57,12.16-.52.51-.62.64-1,1-.4-.56-.23-.33-.65-1-10.75,5.84-11.36,6.21-15.12,8.21.22,0,1.09,2,1.31,2,1.21-.41,9.79-2.38,18.74-4.61-10.06,9.88-12.85,12.56-13.81,13.48.45.48.63.64,1,1-.37.39-.67.66-1,1a15,15,0,0,1-2.63-4.93,10.74,10.74,0,0,1,1-.66,2.63,2.63,0,0,0,.66,1,116.58,116.58,0,0,0,8.54-8.22C165.75,328.6,161.78,329.43,157.23,330.44Z" fill="none" fill-rule="evenodd"/>
        <path d="M165.77,311.05c-2.47,1.41-12,6.69-14.79,8.22a16.91,16.91,0,0,0,1,2c3.3-1.78,13.33-7.19,15.12-8.22A8.92,8.92,0,0,0,165.77,311.05Z" fill="none" fill-rule="evenodd"/>
        <path d="M338.32,321.9c-2.69,4.65-7.27,12.65-9.86,17.09-.34-.16-.92-.48-1.31-.66.36-.69.32-.74.66-1.31-3.61-2-11.39-6.62-14.79-8.55-.26.38-.37.51-.66,1a10,10,0,0,1-1-1c.19-.16,6.79-11.51,10.19-16.76.6.44.84.66,1,.66a4.91,4.91,0,0,1-.66,1c.76.48,7.34,4.21,14.79,8.88a8.76,8.76,0,0,1,.66-1C337.81,321.57,337.93,321.67,338.32,321.9Z" fill="none" fill-rule="evenodd"/>
        <path d="M154.27,325.51c2.65-1.38,12.7-6.73,15.12-8.21a8.8,8.8,0,0,0-1.64-2c-4.53,2.52-14.54,8.06-14.79,8.22C153,324,154.27,325.08,154.27,325.51Z" fill="none" fill-rule="evenodd"/>
        <path d="M320.58,316c-.19.53-.62,1.12-1,2l14.46,8.55a7.9,7.9,0,0,0,1.32-2C333,323,329,320.75,320.58,316Z" fill="none" fill-rule="evenodd"/>
        <path d="M318.28,319.93c-.36.52-.76,1.19-1.32,2,3.48,1.73,11.54,7,14.46,8.87.11-.33,1.21-1.64,1.32-2C330.92,327.76,326.76,325.17,318.28,319.93Z" fill="none" fill-rule="evenodd"/>
        <path d="M316,324.2c-.49.7-.69,1-1.47,2,5.5,2.92,10,5.88,14.62,8.88a8.24,8.24,0,0,0,1.32-2.3C329.73,332.33,322.9,328.3,316,324.2Z" fill="none" fill-rule="evenodd"/>
        <path d="M202.26,357.39c.15,0-6.49,6.11-9.21,8.55.6.48,1,.72,1,.66a4.21,4.21,0,0,1-.66,1.31c-3-1.76-8.6-5.14-11.5-6.9.19,0,.42-.63.66-1l1,.33c3.88-5.46,9.92-15.68,9.86-15.45,2.19,1,5.71,3.46,7.23,4.28-.11,0-.55,1.31-.65,1.31s-1-.76-1-.66c-3.2,5.08-7.74,13-8.55,14.47.53.37,1.31,1.05,1.65,1.31" fill="none" fill-rule="evenodd"/>
        <path d="M195,347.21c-3.28,5.85-8.45,13.39-9.21,14.46a14.31,14.31,0,0,0,2.3,1.31c3.55-6.26,6.75-11.65,8.55-14.79A18.33,18.33,0,0,0,195,347.21Z" fill="none" fill-rule="evenodd"/>
        <path d="M299.87,363.64a3.66,3.66,0,0,1,.66,1c-1.35.88-2.9,1.66-4.6,2.63,0-.31-.22-.5-.42-1.05a4.43,4.43,0,0,0,.74-.59c-1.65-1.85-6.8-7.45-8.54-9.2.71,3.47,2.41,9.42,3.29,12.49a8.85,8.85,0,0,0,1-.66,6.9,6.9,0,0,1,.33,1.31c-.67.31-2.24,1.09-3,1.32a3.39,3.39,0,0,1-.33-1,2.69,2.69,0,0,0,1-.65c.52,1.8-3.08-12-4.6-18.74,4.09,4.22,13.84,14.19,13.47,13.81A5,5,0,0,1,299.87,363.64Z" fill="none" fill-rule="evenodd"/>
        <path d="M192.07,365.61c4.16-4,9-8.4,14.13-13.15-.91,3.34-3.88,13.82-5.26,18.08.66.46.72.51,1.32,1a8.33,8.33,0,0,0-1,1c-1.41-.83-3.05-2-4.6-3,.28-.46.48-.63.66-1,1,.46.71.34,1.31.66,1-2.8,2.71-8.74,3.62-11.84" fill="none" fill-rule="evenodd"/>
        <path d="M250.57,380.07h1.64v1.32H247a9.51,9.51,0,0,1,0-1.32c.67,0,.46,0,1,0-.67-3.66-2.25-8-2.63-12.16-1.27,3.19-1.89,5.87-3.61,11.83.71,0,.78,0,1.31,0,0,.4.06.7,0,1.32-2.62,0-6.08,0-8.87,0a7.26,7.26,0,0,1,0-1.32c.7,0,1,0,1.64,0V362.65h-1.31a11.35,11.35,0,0,0,0-1.31c.7,0,5,0,5.58,0,0,.09,0,.8,0,1.31a14.83,14.83,0,0,1-1.64,0c0,3.84,0,12.42,0,17.09h2c1.05-3.64,4.26-13.87,5.59-18.07C247.59,368.29,249.39,375.3,250.57,380.07Z" fill="none" fill-rule="evenodd"/>
      </g>
    </g>
    <g id="lines">
      <g id="line_Image" data-name="line Image">
        <image id="line_Image-2" data-name="line Image" width="216" height="214" transform="translate(136 171)" xlink:href="png/full_photoshop_allNEW11.png"/>
      </g>
      <g id="line_mask" style="isolation: isolate">
        <path d="M256,171c0,1.83,0,3.65,0,5.48s0,3.67,0,5.52h-2c.09-2,.12-4,.12-6,0-1.67-.05-3.3-.12-5Z" fill="none" fill-rule="evenodd"/>
        <path d="M233,172h2l-.1,4.37L235,182h-2Z" fill="none" fill-rule="evenodd"/>
        <path d="M222,173h1c.35,1.52.67,3,1,4.54.37,1.83.7,3.62,1,5.46h-2C222.67,179.67,222.33,176.33,222,173Z" fill="none" fill-rule="evenodd"/>
        <ellipse cx="244" cy="188.5" rx="2.83" ry="21.92" fill="none"/>
        <path d="M266,173a15.07,15.07,0,0,1,0,10h-2c.33-1.33.67-2.67,1-4a14.45,14.45,0,0,1,.24-2.29c.11-.6.26-1.14.38-1.74,0-.17.1-.53.15-.8S265.92,173.39,266,173Z" fill="none" fill-rule="evenodd"/>
        <path d="M211,176a1.63,1.63,0,0,1,1,0c1.22.42,1.49,2.45,1.71,3.79A35.34,35.34,0,0,0,215,185h-2C212.33,182,211.67,179,211,176Z" fill="none" fill-rule="evenodd"/>
        <path d="M277,176c1.69,3-1,6.51-2,10h-1v-4C275.23,180.48,276.16,177.82,277,176Z" fill="none" fill-rule="evenodd"/>
        <path d="M201,180l5,9-1,1c-.71-1-1.38-2-2-3s-.85-1.69-1.43-2.57c-1-1.46-1.91-2.45-1.57-3.43A1.87,1.87,0,0,1,201,180Z" fill="none" fill-rule="evenodd"/>
        <path d="M287,180c1.7,3.09-1.44,7-3,10h-1v-2A17.54,17.54,0,0,0,287,180Z" fill="none" fill-rule="evenodd"/>
        <path d="M295,186c2.5,1.46,2.16.59,3,4-2.4,4.5-4.91,8.84-7.64,13.14-2.35,3.73-4.77,7.3-7.36,10.86l-3-1c.33-1,.67-2,1-3Z" fill="none" fill-rule="evenodd"/>
        <path d="M193,187a65.31,65.31,0,0,1,8.15,12.19c1.12,2.2,3,6.5,4.85,9.81,1,1.72,1.94,3.37,3,5l-4,1c-2.13-4.78-4.45-9.43-7-14s-5.14-8.77-8-13Z" fill="none" fill-rule="evenodd"/>
        <path d="M306,191c2.47,1.29.68-.43,2,2-2.31,1.76-3.66,4.29-5,7h-2v-1A19,19,0,0,0,306,191Z" fill="none" fill-rule="evenodd"/>
        <path d="M181,192a2.8,2.8,0,0,1,1,0c1.69.32,2.58,2.19,3.18,3.37A42.28,42.28,0,0,0,188,200h-2v-1Z" fill="none" fill-rule="evenodd"/>
        <path d="M173,198a37.72,37.72,0,0,1,3.76,3.72A38.47,38.47,0,0,1,180,206l-2,1c-1.16-1.81-2.4-3.55-3.72-5.24-.74-.95-1.49-1.85-2.28-2.76Z" fill="none" fill-rule="evenodd"/>
        <path d="M315,198c2.47,1.29.68-.43,2,2h-1c-1.45,2.36-3.34,4.79-6,6v-2C312.28,202.44,313.59,200.39,315,198Z" fill="none" fill-rule="evenodd"/>
        <path d="M165,206c1.38,1,2.7,1.92,4,2.92s2.65,2,4,3.08l-2,1-7-5Z" fill="none" fill-rule="evenodd"/>
        <path d="M323,206c1.24,1.57.64.51,0,2-1.79,2.79-3.31,4-7,5v-1h1C318.77,209.49,321.23,208.51,323,206Z" fill="none" fill-rule="evenodd"/>
        <path d="M157,215a4.65,4.65,0,0,1,2,0c1.78.39,2.61,1.74,4,3a12.37,12.37,0,0,0,3,2v2h-1a24.81,24.81,0,0,0-4.35-3.13c-.42-.23-1.08-.58-1.65-.87l-2-1Z" fill="none" fill-rule="evenodd"/>
        <path d="M330,215c1.24,1.57.64.51,0,2l-7,5v-2Z" fill="none" fill-rule="evenodd"/>
        <path d="M333,224c2.47,1.29.68-.43,2,2,.25,1,.78.38,0,1-6.56,6.43-17.61,8.4-24,15-1.75-.63-1-.19-2-1-.8-1-.35-.27-1-2,4.45-2.13,8.77-4.46,13-7S329.12,226.86,333,224Z" fill="none" fill-rule="evenodd"/>
        <path d="M157,226a22.3,22.3,0,0,0,4,2l5,3,15,9-2,3c-5-2.77-12.14-6.75-14.95-8.27-2.28-1.24-3.72-2.58-6.05-3.73s-4.86-2.16-5-4a2.09,2.09,0,0,1,1-2C154.91,224.58,156.06,225.4,157,226Z" fill="none" fill-rule="evenodd"/>
        <path d="M146,234c3.61.87,6,2.52,9,4v1h-3C149.8,237,147.47,236.94,146,234Z" fill="none" fill-rule="evenodd"/>
        <path d="M341,234l1,1-8,4-1-1,4-2Z" fill="none" fill-rule="evenodd"/>
        <path d="M142,244c1.11.33,2.18.69,3.24,1.1.63.24,1.23.5,1.87.73A29.48,29.48,0,0,0,151,247v2c-1.68-.42-3.35-.91-5-1.49-.85-.29-4-1.5-4-1.51h0Z" fill="none" fill-rule="evenodd"/>
        <path d="M345,244c1.12,1.66,1.77,1.07,0,2a22.6,22.6,0,0,0-3.76,1.84c-1.18.71-2.51,1.64-3.24,1.16a1.84,1.84,0,0,1-.56-1.44h0A3.74,3.74,0,0,0,337,247,14.45,14.45,0,0,0,345,244Z" fill="none" fill-rule="evenodd"/>
        <path d="M139,255l9,2v1a19,19,0,0,1-5,0,18.31,18.31,0,0,1-4-1Z" fill="none" fill-rule="evenodd"/>
        <path d="M347,255h2v2c-3.36.49-7.15,1.88-10,0h2C342.19,256.22,345.81,255.8,347,255Z" fill="none" fill-rule="evenodd"/>
        <path d="M137,267h10v2H137Z" fill="none" fill-rule="evenodd"/>
        <path d="M341,267c3.47-.13,8-.33,10,1l-10,1Z" fill="none" fill-rule="evenodd"/>
        <path d="M319,276h30a2.5,2.5,0,0,1,0,4H319a2.5,2.5,0,0,1,0-4Z" fill="none" fill-rule="evenodd"/>
        <ellipse cx="154.5" cy="278.5" rx="21.92" ry="2.12" fill="none"/>
        <path d="M137,288h1.17c3.29,0,6.54,0,9.83,0v2H137Z" fill="none" fill-rule="evenodd"/>
        <path d="M341,288h10v2H341Z" fill="none" fill-rule="evenodd"/>
        <path d="M144,298h5v1h-1c-2.09,1.46-5.68,1.82-9,2v-2C141.53,298.93,142.72,298.88,144,298Z" fill="none" fill-rule="evenodd"/>
        <path d="M340,298l9,1v2h-4l-5-1Z" fill="none" fill-rule="evenodd"/>
        <path d="M150,307c.8,1,.35.27,1,2h-2a18.33,18.33,0,0,1-7,3v-2C144.79,309.47,148.13,308.55,150,307Z" fill="none" fill-rule="evenodd"/>
        <path d="M337,307l9,3v2h-2a21.48,21.48,0,0,0-3.89-2,20,20,0,0,0-3.11-1Z" fill="none" fill-rule="evenodd"/>
        <path d="M178,314c1.62,1.35,1.12.64,2,3-8.51,4.82-17.06,12.22-27,15-.63-1.75-.19-1-1-2v-1c4.43-2.23,8.7-4.53,13-7S173.71,316.81,178,314Z" fill="none" fill-rule="evenodd"/>
        <path d="M310,314l26,14c-.33,1.33-.67,2.67-1,4-7.11-3.2-21.92-10.69-27-16Z" fill="none" fill-rule="evenodd"/>
        <path d="M153,317c2.47,1.29.68-.43,2,2-3.61.87-6,2.52-9,4v-2h1C148.7,319.4,151.32,318.62,153,317Z" fill="none" fill-rule="evenodd"/>
        <path d="M333,317c3.61.87,6,2.52,9,4v1h-2a20.07,20.07,0,0,0-3.61-2.37A20.34,20.34,0,0,0,332,318l1-1Z" fill="none" fill-rule="evenodd"/>
        <path d="M164,335h2l-1,2c-3,1.46-4.45,3-8,4v-1h1C159.67,337.86,162.14,336.91,164,335Z" fill="none" fill-rule="evenodd"/>
        <path d="M323,335h2c1,.65,2,1.3,3,2,1.37,1,2.69,1.95,4,3-.33.67-.67,1.33-1,2l-8-5v-2Z" fill="none" fill-rule="evenodd"/>
        <path d="M205,342l3,1a118.29,118.29,0,0,1-7.17,15A115.67,115.67,0,0,1,193,370l-3-1v-1l7-12Z" fill="none" fill-rule="evenodd"/>
        <path d="M281,342h3c3,9.92,11.88,16.41,14,27h-2v1h-1C292.65,360.88,279.76,349.82,281,342Z" fill="none" fill-rule="evenodd"/>
        <path d="M171,343c1.24,1.57.64.51,0,2a14,14,0,0,1-7,5v-2A16.24,16.24,0,0,0,171,343Z" fill="none" fill-rule="evenodd"/>
        <path d="M317,343c2.95,1.78,6.09,4.12,8,7h-3a11.37,11.37,0,0,0-2.72-3.22c-1.67-1.35-3.36-1.92-3.28-2.78C316,343.61,316.42,343.28,317,343Z" fill="none" fill-rule="evenodd"/>
        <path d="M177,350c1.88,2.44-.85,6.33-5,8v-2C174.51,354.36,175.6,352.77,177,350Z" fill="none" fill-rule="evenodd"/>
        <path d="M310,350c3.08,2,5.13,4.82,7,8h-2C313.05,355,311.16,354.06,310,350Z" fill="none" fill-rule="evenodd"/>
        <ellipse cx="244" cy="367.5" rx="2.83" ry="21.92" fill="none"/>
        <path d="M301,356c3.45,1.61,5.37,5.64,7,9h-2v-1A19,19,0,0,1,301,356Z" fill="none" fill-rule="evenodd"/>
        <path d="M185,357h2l-5,9h-1v-3A21,21,0,0,0,185,357Z" fill="none" fill-rule="evenodd"/>
        <path d="M204,366a2.2,2.2,0,0,1,1,1c.6,1.31-.57,3-1.28,4a37.17,37.17,0,0,0-2.72,5h-1v-2l2-4Z" fill="none" fill-rule="evenodd"/>
        <path d="M283,367h2c.72,1.32,1.38,2.63,2,4,.74,1.64,1.41,3.3,2,5h-2l-1-2c-.37-1.12-.77-2.2-1.23-3.28Q284,368.81,283,367Z" fill="none" fill-rule="evenodd"/>
        <path d="M213,370a2,2,0,0,1,2,3c-1.67,1.79-2.35,4.12-3,7h-2v-2a16.56,16.56,0,0,0,1.81-3.2A16.25,16.25,0,0,0,213,370Z" fill="none" fill-rule="evenodd"/>
        <path d="M274,371a1.63,1.63,0,0,1,1,0c1.17.43,1.36,2.44,1.6,3.92A24.51,24.51,0,0,0,278,380h-2C275.33,377,274.67,374,274,371Z" fill="none" fill-rule="evenodd"/>
        <path d="M264,373h2c.33,3.33.67,6.67,1,10h-1v-1C264.7,380.08,264.28,375.75,264,373Z" fill="none" fill-rule="evenodd"/>
        <path d="M222,374h2c-.33,3-.67,6-1,9h-2v-4C221.88,377.71,221.89,376.53,222,374Z" fill="none" fill-rule="evenodd"/>
        <path d="M233,374h2a22.77,22.77,0,0,1-1,11h-2v-7Z" fill="none" fill-rule="evenodd"/>
        <path d="M254,374h2v11h-2c0-1.82,0-3.62,0-5.44S254,375.86,254,374Z" fill="none" fill-rule="evenodd"/>
      </g>
    </g>
  </g>
  <g id="urskelet">
    <g id="watch_skeleton2_Image" data-name="watch_skeleton2 Image">
      <image id="watch_skeleton2_Image-2" data-name="watch_skeleton2 Image" width="125" height="134" transform="translate(182 210)" xlink:href="png/full_photoshop_allNEW12.png"/>
    </g>
  </g>
  <g id="crown_one">
    <g id="crown_fluted_Image" data-name="crown_fluted Image">
      <image id="crown_fluted_Image-2" data-name="crown_fluted Image" width="20" height="28" transform="translate(376 264)" xlink:href="png/full_photoshop_allNEW13.png"/>
    </g>
    <g id="crown_fluted" opacity="0.42" style="isolation: isolate">
      <path d="M383.89,264.63c.29-.13.89-.73,1.53-.76,1.11-.06,2,1.11,2.31,1.53a33.14,33.14,0,0,1,2.3,3.07,10.4,10.4,0,0,1,.77,5.36c-.09,1.63.07,3,0,4.6q-.15,3.31,0,6.9a7.07,7.07,0,0,1-11.52,3.07c-.74-2.11-1.55-4.56-2.31-6.9a13.93,13.93,0,0,1,0-9.2c1.15-4.36,1.37-7.11,3.08-7.67C381.28,264.23,382.4,265.32,383.89,264.63Z" fill="none" fill-rule="evenodd"/>
    </g>
    <g id="crown_simpel_Image" data-name="crown_simpel Image">
      <image id="crown_simpel_Image-2" data-name="crown_simpel Image" width="21" height="29" transform="translate(367 266)" xlink:href="png/full_photoshop_allNEW14.png"/>
    </g>
    <g id="crown_simpel" opacity="0.42" style="isolation: isolate">
      <path d="M375.33,267.65c.29-.14.88-.77,1.52-.8,1.11-.05,2,1.16,2.29,1.59a33.86,33.86,0,0,1,2.3,3.17,11.25,11.25,0,0,1,.76,5.56c-.09,1.68.07,3.07,0,4.76q-.15,3.42,0,7.14a7.24,7.24,0,0,1-4.58,4.76,6.93,6.93,0,0,1-6.88-1.59c-.73-2.18-1.54-4.72-2.29-7.14a14.9,14.9,0,0,1,0-9.52c1.14-4.51,1.35-7.36,3.06-7.93C372.73,267.23,373.84,268.36,375.33,267.65Z" fill="none" fill-rule="evenodd"/>
    </g>
    <g id="crown_diamound_Image" data-name="crown_diamound Image">
      <image id="crown_diamound_Image-2" data-name="crown_diamound Image" width="23" height="34" transform="translate(362 261)" xlink:href="png/full_photoshop_allNEW15.png"/>
    </g>
    <g id="crown_diamound" opacity="0.51" style="isolation: isolate">
      <path d="M372.24,262.81c.33-.15,1-.84,1.73-.87,1.24-.06,2.23,1.27,2.58,1.74a37.45,37.45,0,0,1,2.59,3.48,12,12,0,0,1,.86,6.09c-.1,1.85.08,3.37,0,5.22-.11,2.51-.11,5.11,0,7.83a7.9,7.9,0,0,1-12.93,3.48c-.82-2.39-1.73-5.17-2.58-7.83a17.55,17.55,0,0,1-.86-4.35,17.91,17.91,0,0,1,.86-6.09c1.28-4.95,1.53-8.07,3.45-8.7C369.32,262.36,370.57,263.59,372.24,262.81Z" fill="none" fill-rule="evenodd"/>
    </g>
  </g>
  <g id="crown_3">
    <g id="crown_simple_crown_simple_shadow" data-name="crown_simple + crown_simple_shadow" style="isolation: isolate">
      <path d="M362.09,221.62c6,2.54,11.52,9.48,10.62,16.89-1.88,1.27-6.51,4.42-8.69,4.34-2.51-4.35-6.58-11.16-9.65-16.4C356.61,225.37,359.84,223.05,362.09,221.62Z" fill="none" fill-rule="evenodd"/>
      <path d="M390.08,279.52c1.09,8.68-4.37,12.92-7.72,16.41H370.78c-.27,6.25.55-10.58,1-27,.71-.41.42-.39,1-1,3.83,0,8,0,11.1,0C388.15,270.6,389.91,278.15,390.08,279.52Z" fill="none" fill-rule="evenodd"/>
      <path d="M364,342.25c-3.11-1.69-5.59-3.37-10.13-5.79,4-6.67,8.21-13.43,10.62-16.89,3.25,2,3.23,2,8.68,5.79A18.3,18.3,0,0,1,364,342.25Z" fill="none" fill-rule="evenodd"/>
    </g>
    <g id="crown_large_crown_large_Shadow" data-name="crown_large + crown_large_Shadow" style="isolation: isolate">
      <path d="M366.74,219.48c6.1,2.63,11.72,9.65,10.68,17.05-1.95,1.24-6.77,4.32-9,4.21-2.52-4.4-6.61-11.27-9.69-16.55C361,223.14,364.4,220.87,366.74,219.48Z" fill="none" fill-rule="evenodd"/>
      <path d="M394.69,277.81c1,8.68-4.7,12.85-8.19,16.28l-11.92-.18c-.38,6.25.72-10.57,1.39-27,.73-.4.44-.38,1-1,3.94,0,8.2.09,11.43.17C392.83,268.85,394.53,276.43,394.69,277.81Z" fill="none" fill-rule="evenodd"/>
      <path d="M366.93,340.12c-3.18-1.74-5.71-3.45-10.34-5.94,4.18-6.61,8.64-13.3,11.18-16.72,3.31,2.06,3.3,2,8.85,5.92A18.23,18.23,0,0,1,366.93,340.12Z" fill="none" fill-rule="evenodd"/>
    </g>
    <g id="crown_fluted_crown_fluted_shadow" data-name="crown_fluted + crown_fluted_shadow" style="isolation: isolate">
      <path d="M371.31,217.3c5.5,2.49,10.64,9.32,9.8,16.61-1.73,1.25-6,4.35-8,4.27-2.32-4.28-6.09-11-8.91-16.13C366.24,221,369.22,218.7,371.31,217.3Z" fill="none" fill-rule="evenodd"/>
      <path d="M397.16,274.26c1,8.53-4,12.71-7.13,16.14h-10.7c-.25,6.15.51-10.41.89-26.58.65-.41.39-.39.89-.95,3.54,0,7.36,0,10.26,0C395.38,265.48,397,272.91,397.16,274.26Z" fill="none" fill-rule="evenodd"/>
      <path d="M373.09,336c-2.87-1.67-5.17-3.32-9.36-5.7,3.67-6.56,7.58-13.21,9.81-16.61,3,2,3,2,8,5.69C382,328.64,376.08,334.37,373.09,336Z" fill="none" fill-rule="evenodd"/>
    </g>
  </g>
  <g id="bezel">
    <g id="bezel_simpel">
      <g id="bezel_simpel_Image" data-name="bezel_simpel Image">
        <image id="bezel_simpel_Image-2" data-name="bezel_simpel Image" width="263" height="262" transform="translate(111 146)" xlink:href="png/full_photoshop_allNEW16.png"/>
      </g>
      <g id="simple_mask" opacity="0.7" style="isolation: isolate">
        <path d="M234,147a118.17,118.17,0,0,1,19,0c17.37,1.41,36.27,7.07,55.54,18.7,27.17,16.4,46.6,39.47,56.46,65.3,11.68,30.61,9.86,62.9,0,90a133.15,133.15,0,0,1-47.09,62c-20.8,15.09-41.11,22.67-59.91,24-3.7.26-11.64.15-18,0-6.75-.16-14.94-.48-19-1-14.57-1.85-30.65-7.32-47.71-18.07A134,134,0,0,1,118,318c-9.66-28.67-5.47-74.13,6-97,14.6-29.09,40.24-52,71-65l24-7C224.84,147.57,230,149.65,234,147Z" fill="none" fill-rule="evenodd"/>
        <path d="M231,167a119.74,119.74,0,0,0-27,6c-12.4,4.32-22.45,9.92-29,15-5.23,4.06-13.75,13.2-21,23a140.56,140.56,0,0,0-11,17,100.62,100.62,0,0,0-8,19c-.77,2.6-1.44,5.25-2,8-1.26,6.13-1.81,14.42-2,23-.08,3.52-.15,7.7,0,10,.38,6,2.13,14.34,5,23,2.74,8.29,6.27,16.54,9,21,4.13,6.75,8.63,10.41,13,17a52.21,52.21,0,0,0,4.79,6.13A46.28,46.28,0,0,0,171,362c11.3,7.55,24.41,15.42,31,18a110.94,110.94,0,0,0,60,6c21.54-4,43.35-15.41,62-35a105.63,105.63,0,0,0,18-25,100.8,100.8,0,0,0,9-26c1-5.16,1.35-13.5,2-21a74.84,74.84,0,0,0,0-17,72.54,72.54,0,0,0-4-16c-3.73-10.5-8.2-20.77-12-27a106.45,106.45,0,0,0-71-50A112.14,112.14,0,0,0,231,167Z" fill="none" fill-rule="evenodd"/>
      </g>
    </g>
    <g id="bezel_diamound">
      <g id="small-diamound_Image" data-name="small-diamound Image">
        <image id="small-diamound_Image-2" data-name="small-diamound Image" width="249" height="252" transform="translate(119 151)" xlink:href="png/full_photoshop_allNEW17.png"/>
      </g>
      <g id="small_diamound_mask" opacity="0.29" style="isolation: isolate">
        <image id="small_diamound_mask_Image" data-name="small_diamound_mask Image" width="470" height="600" xlink:href="png/full_photoshop_allNEW18.png" style="display:none"/>
        <path d="M241,151a101.2,101.2,0,0,1,36,4,128.46,128.46,0,0,1,21,9,144.34,144.34,0,0,1,26.88,17.67A119.58,119.58,0,0,1,363,241a145.55,145.55,0,0,1,5,33,112.06,112.06,0,0,1-1,23,136.44,136.44,0,0,1-4,16c-1.61,5.34-3.63,11.61-5,15a115,115,0,0,1-22.54,34.73A125.63,125.63,0,0,1,292,393a127.48,127.48,0,0,1-50,10,110.22,110.22,0,0,1-30-4,129.35,129.35,0,0,1-20-8,141.73,141.73,0,0,1-22-13,124.66,124.66,0,0,1-26-26,128.38,128.38,0,0,1-25-84,124.24,124.24,0,0,1,9-39c9.91-24.24,27.48-44.36,48-58a130.42,130.42,0,0,1,28-14,101.22,101.22,0,0,1,19-5A93.53,93.53,0,0,1,241,151Z" fill="none" fill-rule="evenodd"/>
        <path d="M234,166c-3.7.55-7.31,1.21-11,2-9.12,1.95-17.73,4.36-24,7-9.2,3.87-20.49,10.91-32,22-15.81,15.24-24,30.06-28,42a93.31,93.31,0,0,0-4,17q-.5,8-1,16c-.21,4.37-.21,8.69,0,13,.57,11.66,2.65,22.5,5,29,2,5.47,6.92,14.6,13,23a121.11,121.11,0,0,0,20,22,115.39,115.39,0,0,0,75,27,113.33,113.33,0,0,0,21-2c23.66-4.68,44.36-19.68,59-36,10-11.19,16.36-21.92,20-31,3.36-8.38,6.15-20.1,7-34a114.37,114.37,0,0,0-1-25,108.64,108.64,0,0,0-69-85A115.74,115.74,0,0,0,234,166Z" fill="none" fill-rule="evenodd"/>
        <line x1="335" y1="366" x2="335.46" y2="364.79" fill="none"/>
      </g>
    </g>
    <g id="bezel_large">
      <g id="bezel1_Image" data-name="bezel1 Image">
        <image id="bezel1_Image-2" data-name="bezel1 Image" width="269" height="290" transform="translate(109 149)" xlink:href="png/full_photoshop_allNEW19.png"/>
      </g>
      <g id="bezel1" opacity="0.17" style="isolation: isolate">
        <path d="M351.15,206.81h3.05c22.15,34.43,28.45,74.8,14.21,114.51q.49,2.54,1,5.07l-3,1c-1.59,2.21-.86,8-3.05,12.16-3.66,6.93-14.24,14.82-13.19,23.31-9.45.79-7.43,8.81-16.24,10.13-.34,2-.68,4.05-1,6.08-5.22,3.33-10.26,9.23-15.23,12.16-13.56,8-30.78,12.3-44.65,17.23H265.9c-11.67,2.83-22.21,3.2-32.47,1-4.92-1.05-12.56,1.1-19.29-1-13.23-4.15-29.31-7.6-40.59-14.19-6.58-3.84-10.3-11.14-16.24-15.2l-6.09-2q-2.53-3.54-5.08-7.09c-1.42-1-3.11.38-4-1v-4.06c-2.12-3.73-8.53-9.39-11.17-13.17v-4.05l-4.06-2v-5.07h-2c-1-1.27.07-3.53-1-5.06-.6-.85-3.59-.87-4.06-2,.34-1.69.67-3.38,1-5.07-.65-1.91-4.33-5.53-5.07-7.09v-5.07l-3-1c-.83-2,1.94-3.25,2-4.05v-2l-2-1V299c-3.56-11.85-2.51-41.24,3-48.64-.66-1.92-3-2.48-2-6.08,1.1-4.13,5.36-9.64,7.1-13.18l1-8.1c1-2.26,4.93-2.05,6.09-4.06q.5-3,1-6.08c2.5-4.19,6-4.93,7.11-11.14,2.1-.38,1.95-.25,3-1,3.61-4.17,6.69-10.21,10.15-14.18,4-4.59,14.69-9.6,20.3-13.18,6-3.82,13.11-9.2,19.28-13.17h5.07l2-3c.94-.4,1.94,1.88,4.06,1,24.55-10,58.63-12.09,87.28,0l4.06-1,2,3c3.25,1.55,8.39,1.22,11.17,3,.34,1,.67,2,1,3,3.31,1.88,7.69,1.3,11.17,3C323.34,172.66,350.22,198.54,351.15,206.81Z" fill="none" fill-rule="evenodd"/>
        <path d="M230.38,170.33c-4.81,3.1-12.33,2.13-18.27,4.06a213.88,213.88,0,0,0-20.3,8.1C164.53,194.6,145.43,222.25,135,251.4c-5.12,14.29-3.37,45.72,1,58.77,9.92,29.55,32.43,56,59.87,67.9,7.24,3.12,13.25,3.28,21.32,6.08,11,3.8,31.94,6.68,46.68,3,39.61-9.78,69.6-33.34,84.24-67.9,28.38-67-21.44-127.11-68-143.89C266,170.3,249.39,170.23,230.38,170.33Z" fill="none" fill-rule="evenodd"/>
      </g>
    </g>
    <g id="bezel-fluted">
      <g id="fluted_Image" data-name="fluted Image">
        <image id="fluted_Image-2" data-name="fluted Image" width="268" height="271" transform="translate(112 142)" xlink:href="png/full_photoshop_allNEW20.png"/>
      </g>
      <g id="fluted_mask" opacity="0.48" style="isolation: isolate">
        <path d="M228.46,143.23a120.13,120.13,0,0,1,49.31,2,127.94,127.94,0,0,1,24.15,9.07,141.88,141.88,0,0,1,28.18,18.15c20.17,16.67,36,38.8,44.28,63.53,4,12.11,6.62,26.29,7.05,43.36a122,122,0,0,1-1,20.16c-1.57,10.91-5.49,23.78-13.08,38.32-13.94,26.69-30.9,43.59-47.3,54.45-16.94,11.22-34.5,17.74-51.33,20.17-5.54.8-16,1.05-25.16,1-11.69-.06-20.91-.93-31.2-4a96,96,0,0,1-13.08-5c-11.17-5.17-24.71-11.53-30.19-15.12-25.28-16.57-41.23-43.11-49.31-66.55a137.54,137.54,0,0,1-2-83.7c15.28-51.58,55.78-76.37,70.45-83.69a126,126,0,0,1,28.18-10.08A118.43,118.43,0,0,1,228.46,143.23Z" fill="none" fill-rule="evenodd"/>
        <path d="M224.43,169.45c-3.6,3-9,2.2-14.09,4a129,129,0,0,0-22.14,10.09A108.11,108.11,0,0,0,141.91,240a109.59,109.59,0,0,0-6,42.35A111.23,111.23,0,0,0,156,340.87a101.81,101.81,0,0,0,48.3,37.3A109.47,109.47,0,0,0,317,357c16.06-14.41,26.23-30.9,31.19-47.39a109.78,109.78,0,0,0,4-23.19,117.2,117.2,0,0,0-2-33.28,104.87,104.87,0,0,0-9.06-26.22C335.39,215.63,326.46,204,312.73,193a116.54,116.54,0,0,0-52.07-23.53,158.72,158.72,0,0,0-21.13-1C234.47,168.54,229.45,168.87,224.43,169.45Z" fill="none" fill-rule="evenodd"/>
      </g>
    </g>
  </g>
  <g id="pointers">
    <g id="hour_hand" class="pointer" style="isolation: isolate">
    <path d="M9.48,46.3c3.28.38,2.15,8,2,11.16-.32,8.61-.5,16.39-.46,25.07,0,3-.33,6.12-.33,9.67.69.11,7,7.09,1,11.81-2.44,1.56-7.63,1.94-9.3-.93-2.52-2.8-3-7.63,2-11.07,0-8.49.35-17.45.67-25.92C5.34,59.56,5,54.2,6,47.7,6,47,7.55,45.85,9.48,46.3Z" fill="none" fill-rule="evenodd"/>
  </g>
  <g id="MinutesPointer1" class="pointer" style="isolation: isolate">
    <path d="M5.72,25.74c.55-.58,1.1-1.15,1.66-1.72a5.33,5.33,0,0,1,1.74.15,3.37,3.37,0,0,1,1.64.8c.53,4.78.16,9.31.13,14.24-.08,9.44.22,19-.16,28.53.6-15.07-.39,24-.22,24.13,8.17,4.55,2.45,10.69-.27,11.78-4,1.61-15.08-2.38-5.63-12.35.19-3.51.53-24.07.42-13.48.06-5.14.12-10.06.34-15.35.29-7.21-.27-14.57,0-21.79C5.46,36,5.6,30.53,5.72,25.74Z" fill="none" fill-rule="evenodd"/>
  </g>
  <g id="secound_hand" class="pointer" style="isolation: isolate">
    <path d="M13,128.54c-.9.16-1.37.16-2.49.44-2.82.26-2.61.31-5.79.52-.58,0-.69,0-2.13.16C3.35,121.05,3.36,107,3.73,98c.83-19.8,2.34-40.16,3.13-60Q7.58,19.68,8.5,1.12c.23-.18.71-.06.94-.24A2.15,2.15,0,0,1,10.62,1c-.76,5,0,10.91.31,15.87.13,2.2-.25,4.81-.25,7,0,4.88.66,9.24.67,14.14,0,5.8.18,12.22.18,17.92,0,9.37.08,18,.64,27.35.27,4.5-.42,10.1,0,14.68.32,4,0,7.75.32,11.47,0,.7.07,1.63.11,2.36,0,1.07.13,1.25.11,2.36C12.6,118.46,12.87,124.26,13,128.54Z" fill="none" fill-rule="evenodd"/>
  </g>
  </g>
  <g id="date">
    <g id="Date_copy_Image" data-name="Date copy Image">
      <image id="Date_copy_Image-2" data-name="Date copy Image" width="31" height="23" transform="translate(294 268)" xlink:href="png/full_photoshop_allNEW24.png"/>
    </g>
    <g id="Date-2" data-name="Date" style="isolation: isolate">
      <path d="M322.6,289.8c-1.56-.28-2.06-.21-6.8-.2-9.82,0-12.24-.1-20.8-.2a112.81,112.81,0,0,1-.4-16,18.55,18.55,0,0,1,1-4.6c.21-.15.19-.12.6-.2,8.41,0,20.16,0,27,.4.55,1.27.64,1.94.8,4.6C324.82,287.31,323.55,289.07,322.6,289.8Z" fill="none" fill-rule="evenodd"/>
      <path d="M320.6,287.2c0-4.69.66-11.15-.2-15.6-9.57-.19-16.8-.41-23,0-.31,5-.59,3.56-.2,15.4C294.7,287.23,311,287.2,320.6,287.2Z" fill="none" fill-rule="evenodd"/>
    </g>
    <g id="Shadow_Image-3" data-name="Shadow Image">
      <image id="Shadow_Image-4" data-name="Shadow Image" width="31" height="23" transform="translate(294 268)" xlink:href="png/full_photoshop_allNEW25.png"/>
    </g>
    <g id="_20" data-name="20">
      <g>
        <path d="M307.48,282.26c-.18.63-.42,1.35-.56,1.87h-5.28v-.34c.77-.76,1.61-1.58,2.3-2.38a5.69,5.69,0,0,0,1.72-3.38c0-1.16-.62-1.83-1.64-1.83a2.43,2.43,0,0,0-1.93,1.3l-.33-.29.8-1.14a2.56,2.56,0,0,1,1.92-.84,2.29,2.29,0,0,1,2.38,2.43c0,1.19-.43,2-1.76,3.39-.6.63-1.49,1.48-2.09,2.05h2.68c.75,0,1-.07,1.44-1Z"/>
        <path d="M311.38,275.23c2.11,0,2.89,2.36,2.89,4.53s-.78,4.53-2.89,4.53-2.92-2.31-2.92-4.52C308.46,277.73,309.25,275.23,311.38,275.23Zm0,.49c-1.3,0-1.62,2.06-1.62,4s.39,4.06,1.62,4.06,1.6-2.08,1.6-4S312.63,275.72,311.38,275.72Z"/>
      </g>
    </g>
  </g>
</svg>